<?xml version="1.0" encoding="UTF-8"?>
<svg xmlns="http://www.w3.org/2000/svg" xmlns:xlink="http://www.w3.org/1999/xlink" width="48px" height="25px" viewBox="0 0 47 25" version="1.1">
<g id="surface1">
<rect x="0" y="0" width="47" height="25" style="fill:rgb(69.803922%,13.333333%,20.392157%);fill-opacity:1;stroke:none;"/>
<path style="fill-rule:nonzero;fill:rgb(0%,0%,0%);fill-opacity:1;stroke-width:300;stroke-linecap:butt;stroke-linejoin:miter;stroke:rgb(100%,100%,100%);stroke-opacity:1;stroke-miterlimit:4;" d="M 0 449.71875 L 7410 449.71875 M 7410 1049.953125 L 0 1049.953125 M 0 1650.1875 L 7410 1650.1875 M 7410 2249.8125 L 0 2249.8125 M 0 2850.046875 L 7410 2850.046875 M 7410 3450.28125 L 0 3450.28125 " transform="matrix(0.00634278,0,0,0.00641026,0,0)"/>
<path style=" stroke:none;fill-rule:nonzero;fill:rgb(23.529412%,23.137255%,43.137255%);fill-opacity:1;" d="M 0 0 L 18.800781 0 L 18.800781 13.460938 L 0 13.460938 Z M 0 0 "/>
<path style=" stroke:none;fill-rule:nonzero;fill:rgb(100%,100%,100%);fill-opacity:1;" d="M 1.566406 0.578125 L 2.015625 1.96875 L 0.84375 1.109375 L 2.289062 1.109375 L 1.121094 1.96875 Z M 1.566406 0.578125 "/>
<path style=" stroke:none;fill-rule:nonzero;fill:rgb(100%,100%,100%);fill-opacity:1;" d="M 1.566406 3.269531 L 2.015625 4.660156 L 0.84375 3.800781 L 2.289062 3.800781 L 1.121094 4.660156 Z M 1.566406 3.269531 "/>
<path style=" stroke:none;fill-rule:nonzero;fill:rgb(100%,100%,100%);fill-opacity:1;" d="M 1.566406 5.960938 L 2.015625 7.351562 L 0.84375 6.492188 L 2.289062 6.492188 L 1.121094 7.351562 Z M 1.566406 5.960938 "/>
<path style=" stroke:none;fill-rule:nonzero;fill:rgb(100%,100%,100%);fill-opacity:1;" d="M 1.566406 8.652344 L 2.015625 10.046875 L 0.84375 9.183594 L 2.289062 9.183594 L 1.121094 10.046875 Z M 1.566406 8.652344 "/>
<path style=" stroke:none;fill-rule:nonzero;fill:rgb(100%,100%,100%);fill-opacity:1;" d="M 1.566406 11.347656 L 2.015625 12.738281 L 0.84375 11.878906 L 2.289062 11.878906 L 1.121094 12.738281 Z M 1.566406 11.347656 "/>
<path style=" stroke:none;fill-rule:nonzero;fill:rgb(100%,100%,100%);fill-opacity:1;" d="M 3.132812 1.921875 L 3.582031 3.316406 L 2.410156 2.453125 L 3.855469 2.453125 L 2.6875 3.316406 Z M 3.132812 1.921875 "/>
<path style=" stroke:none;fill-rule:nonzero;fill:rgb(100%,100%,100%);fill-opacity:1;" d="M 3.132812 4.617188 L 3.582031 6.007812 L 2.410156 5.148438 L 3.855469 5.148438 L 2.6875 6.007812 Z M 3.132812 4.617188 "/>
<path style=" stroke:none;fill-rule:nonzero;fill:rgb(100%,100%,100%);fill-opacity:1;" d="M 3.132812 7.308594 L 3.582031 8.699219 L 2.410156 7.839844 L 3.855469 7.839844 L 2.6875 8.699219 Z M 3.132812 7.308594 "/>
<path style=" stroke:none;fill-rule:nonzero;fill:rgb(100%,100%,100%);fill-opacity:1;" d="M 3.132812 10 L 3.582031 11.390625 L 2.410156 10.53125 L 3.855469 10.53125 L 2.6875 11.390625 Z M 3.132812 10 "/>
<path style=" stroke:none;fill-rule:nonzero;fill:rgb(100%,100%,100%);fill-opacity:1;" d="M 4.699219 0.578125 L 5.148438 1.96875 L 3.976562 1.109375 L 5.425781 1.109375 L 4.253906 1.96875 Z M 4.699219 0.578125 "/>
<path style=" stroke:none;fill-rule:nonzero;fill:rgb(100%,100%,100%);fill-opacity:1;" d="M 4.699219 3.269531 L 5.148438 4.660156 L 3.976562 3.800781 L 5.425781 3.800781 L 4.253906 4.660156 Z M 4.699219 3.269531 "/>
<path style=" stroke:none;fill-rule:nonzero;fill:rgb(100%,100%,100%);fill-opacity:1;" d="M 4.699219 5.960938 L 5.148438 7.351562 L 3.976562 6.492188 L 5.425781 6.492188 L 4.253906 7.351562 Z M 4.699219 5.960938 "/>
<path style=" stroke:none;fill-rule:nonzero;fill:rgb(100%,100%,100%);fill-opacity:1;" d="M 4.699219 8.652344 L 5.148438 10.046875 L 3.976562 9.183594 L 5.425781 9.183594 L 4.253906 10.046875 Z M 4.699219 8.652344 "/>
<path style=" stroke:none;fill-rule:nonzero;fill:rgb(100%,100%,100%);fill-opacity:1;" d="M 4.699219 11.347656 L 5.148438 12.738281 L 3.976562 11.878906 L 5.425781 11.878906 L 4.253906 12.738281 Z M 4.699219 11.347656 "/>
<path style=" stroke:none;fill-rule:nonzero;fill:rgb(100%,100%,100%);fill-opacity:1;" d="M 6.265625 1.921875 L 6.714844 3.316406 L 5.542969 2.453125 L 6.992188 2.453125 L 5.820312 3.316406 Z M 6.265625 1.921875 "/>
<path style=" stroke:none;fill-rule:nonzero;fill:rgb(100%,100%,100%);fill-opacity:1;" d="M 6.265625 4.617188 L 6.714844 6.007812 L 5.542969 5.148438 L 6.992188 5.148438 L 5.820312 6.007812 Z M 6.265625 4.617188 "/>
<path style=" stroke:none;fill-rule:nonzero;fill:rgb(100%,100%,100%);fill-opacity:1;" d="M 6.265625 7.308594 L 6.714844 8.699219 L 5.542969 7.839844 L 6.992188 7.839844 L 5.820312 8.699219 Z M 6.265625 7.308594 "/>
<path style=" stroke:none;fill-rule:nonzero;fill:rgb(100%,100%,100%);fill-opacity:1;" d="M 6.265625 10 L 6.714844 11.390625 L 5.542969 10.53125 L 6.992188 10.53125 L 5.820312 11.390625 Z M 6.265625 10 "/>
<path style=" stroke:none;fill-rule:nonzero;fill:rgb(100%,100%,100%);fill-opacity:1;" d="M 7.832031 0.578125 L 8.28125 1.96875 L 7.109375 1.109375 L 8.558594 1.109375 L 7.386719 1.96875 Z M 7.832031 0.578125 "/>
<path style=" stroke:none;fill-rule:nonzero;fill:rgb(100%,100%,100%);fill-opacity:1;" d="M 7.832031 3.269531 L 8.28125 4.660156 L 7.109375 3.800781 L 8.558594 3.800781 L 7.386719 4.660156 Z M 7.832031 3.269531 "/>
<path style=" stroke:none;fill-rule:nonzero;fill:rgb(100%,100%,100%);fill-opacity:1;" d="M 7.832031 5.960938 L 8.28125 7.351562 L 7.109375 6.492188 L 8.558594 6.492188 L 7.386719 7.351562 Z M 7.832031 5.960938 "/>
<path style=" stroke:none;fill-rule:nonzero;fill:rgb(100%,100%,100%);fill-opacity:1;" d="M 7.832031 8.652344 L 8.28125 10.046875 L 7.109375 9.183594 L 8.558594 9.183594 L 7.386719 10.046875 Z M 7.832031 8.652344 "/>
<path style=" stroke:none;fill-rule:nonzero;fill:rgb(100%,100%,100%);fill-opacity:1;" d="M 7.832031 11.347656 L 8.28125 12.738281 L 7.109375 11.878906 L 8.558594 11.878906 L 7.386719 12.738281 Z M 7.832031 11.347656 "/>
<path style=" stroke:none;fill-rule:nonzero;fill:rgb(100%,100%,100%);fill-opacity:1;" d="M 9.398438 1.921875 L 9.847656 3.316406 L 8.675781 2.453125 L 10.125 2.453125 L 8.953125 3.316406 Z M 9.398438 1.921875 "/>
<path style=" stroke:none;fill-rule:nonzero;fill:rgb(100%,100%,100%);fill-opacity:1;" d="M 9.398438 4.617188 L 9.847656 6.007812 L 8.675781 5.148438 L 10.125 5.148438 L 8.953125 6.007812 Z M 9.398438 4.617188 "/>
<path style=" stroke:none;fill-rule:nonzero;fill:rgb(100%,100%,100%);fill-opacity:1;" d="M 9.398438 7.308594 L 9.847656 8.699219 L 8.675781 7.839844 L 10.125 7.839844 L 8.953125 8.699219 Z M 9.398438 7.308594 "/>
<path style=" stroke:none;fill-rule:nonzero;fill:rgb(100%,100%,100%);fill-opacity:1;" d="M 9.398438 10 L 9.847656 11.390625 L 8.675781 10.53125 L 10.125 10.53125 L 8.953125 11.390625 Z M 9.398438 10 "/>
<path style=" stroke:none;fill-rule:nonzero;fill:rgb(100%,100%,100%);fill-opacity:1;" d="M 10.964844 0.578125 L 11.414062 1.96875 L 10.242188 1.109375 L 11.691406 1.109375 L 10.519531 1.96875 Z M 10.964844 0.578125 "/>
<path style=" stroke:none;fill-rule:nonzero;fill:rgb(100%,100%,100%);fill-opacity:1;" d="M 10.964844 3.269531 L 11.414062 4.660156 L 10.242188 3.800781 L 11.691406 3.800781 L 10.519531 4.660156 Z M 10.964844 3.269531 "/>
<path style=" stroke:none;fill-rule:nonzero;fill:rgb(100%,100%,100%);fill-opacity:1;" d="M 10.964844 5.960938 L 11.414062 7.351562 L 10.242188 6.492188 L 11.691406 6.492188 L 10.519531 7.351562 Z M 10.964844 5.960938 "/>
<path style=" stroke:none;fill-rule:nonzero;fill:rgb(100%,100%,100%);fill-opacity:1;" d="M 10.964844 8.652344 L 11.414062 10.046875 L 10.242188 9.183594 L 11.691406 9.183594 L 10.519531 10.046875 Z M 10.964844 8.652344 "/>
<path style=" stroke:none;fill-rule:nonzero;fill:rgb(100%,100%,100%);fill-opacity:1;" d="M 10.964844 11.347656 L 11.414062 12.738281 L 10.242188 11.878906 L 11.691406 11.878906 L 10.519531 12.738281 Z M 10.964844 11.347656 "/>
<path style=" stroke:none;fill-rule:nonzero;fill:rgb(100%,100%,100%);fill-opacity:1;" d="M 12.535156 1.921875 L 12.980469 3.316406 L 11.808594 2.453125 L 13.257812 2.453125 L 12.085938 3.316406 Z M 12.535156 1.921875 "/>
<path style=" stroke:none;fill-rule:nonzero;fill:rgb(100%,100%,100%);fill-opacity:1;" d="M 12.535156 4.617188 L 12.980469 6.007812 L 11.808594 5.148438 L 13.257812 5.148438 L 12.085938 6.007812 Z M 12.535156 4.617188 "/>
<path style=" stroke:none;fill-rule:nonzero;fill:rgb(100%,100%,100%);fill-opacity:1;" d="M 12.535156 7.308594 L 12.980469 8.699219 L 11.808594 7.839844 L 13.257812 7.839844 L 12.085938 8.699219 Z M 12.535156 7.308594 "/>
<path style=" stroke:none;fill-rule:nonzero;fill:rgb(100%,100%,100%);fill-opacity:1;" d="M 12.535156 10 L 12.980469 11.390625 L 11.808594 10.53125 L 13.257812 10.53125 L 12.085938 11.390625 Z M 12.535156 10 "/>
<path style=" stroke:none;fill-rule:nonzero;fill:rgb(100%,100%,100%);fill-opacity:1;" d="M 14.101562 0.578125 L 14.546875 1.96875 L 13.375 1.109375 L 14.824219 1.109375 L 13.652344 1.96875 Z M 14.101562 0.578125 "/>
<path style=" stroke:none;fill-rule:nonzero;fill:rgb(100%,100%,100%);fill-opacity:1;" d="M 14.101562 3.269531 L 14.546875 4.660156 L 13.375 3.800781 L 14.824219 3.800781 L 13.652344 4.660156 Z M 14.101562 3.269531 "/>
<path style=" stroke:none;fill-rule:nonzero;fill:rgb(100%,100%,100%);fill-opacity:1;" d="M 14.101562 5.960938 L 14.546875 7.351562 L 13.375 6.492188 L 14.824219 6.492188 L 13.652344 7.351562 Z M 14.101562 5.960938 "/>
<path style=" stroke:none;fill-rule:nonzero;fill:rgb(100%,100%,100%);fill-opacity:1;" d="M 14.101562 8.652344 L 14.546875 10.046875 L 13.375 9.183594 L 14.824219 9.183594 L 13.652344 10.046875 Z M 14.101562 8.652344 "/>
<path style=" stroke:none;fill-rule:nonzero;fill:rgb(100%,100%,100%);fill-opacity:1;" d="M 14.101562 11.347656 L 14.546875 12.738281 L 13.375 11.878906 L 14.824219 11.878906 L 13.652344 12.738281 Z M 14.101562 11.347656 "/>
<path style=" stroke:none;fill-rule:nonzero;fill:rgb(100%,100%,100%);fill-opacity:1;" d="M 15.667969 1.921875 L 16.113281 3.316406 L 14.941406 2.453125 L 16.390625 2.453125 L 15.21875 3.316406 Z M 15.667969 1.921875 "/>
<path style=" stroke:none;fill-rule:nonzero;fill:rgb(100%,100%,100%);fill-opacity:1;" d="M 15.667969 4.617188 L 16.113281 6.007812 L 14.941406 5.148438 L 16.390625 5.148438 L 15.21875 6.007812 Z M 15.667969 4.617188 "/>
<path style=" stroke:none;fill-rule:nonzero;fill:rgb(100%,100%,100%);fill-opacity:1;" d="M 15.667969 7.308594 L 16.113281 8.699219 L 14.941406 7.839844 L 16.390625 7.839844 L 15.21875 8.699219 Z M 15.667969 7.308594 "/>
<path style=" stroke:none;fill-rule:nonzero;fill:rgb(100%,100%,100%);fill-opacity:1;" d="M 15.667969 10 L 16.113281 11.390625 L 14.941406 10.53125 L 16.390625 10.53125 L 15.21875 11.390625 Z M 15.667969 10 "/>
<path style=" stroke:none;fill-rule:nonzero;fill:rgb(100%,100%,100%);fill-opacity:1;" d="M 17.234375 0.578125 L 17.679688 1.96875 L 16.507812 1.109375 L 17.957031 1.109375 L 16.785156 1.96875 Z M 17.234375 0.578125 "/>
<path style=" stroke:none;fill-rule:nonzero;fill:rgb(100%,100%,100%);fill-opacity:1;" d="M 17.234375 3.269531 L 17.679688 4.660156 L 16.507812 3.800781 L 17.957031 3.800781 L 16.785156 4.660156 Z M 17.234375 3.269531 "/>
<path style=" stroke:none;fill-rule:nonzero;fill:rgb(100%,100%,100%);fill-opacity:1;" d="M 17.234375 5.960938 L 17.679688 7.351562 L 16.507812 6.492188 L 17.957031 6.492188 L 16.785156 7.351562 Z M 17.234375 5.960938 "/>
<path style=" stroke:none;fill-rule:nonzero;fill:rgb(100%,100%,100%);fill-opacity:1;" d="M 17.234375 8.652344 L 17.679688 10.046875 L 16.507812 9.183594 L 17.957031 9.183594 L 16.785156 10.046875 Z M 17.234375 8.652344 "/>
<path style=" stroke:none;fill-rule:nonzero;fill:rgb(100%,100%,100%);fill-opacity:1;" d="M 17.234375 11.347656 L 17.679688 12.738281 L 16.507812 11.878906 L 17.957031 11.878906 L 16.785156 12.738281 Z M 17.234375 11.347656 "/>
</g>
</svg>
